<svg xmlns="http://www.w3.org/2000/svg" width="73" height="73" viewBox="0 0 73 73">
  <defs>
    <style>
      .cls-1 {
        fill: #333;
      }

      .cls-2, .cls-4 {
        fill: none;
        stroke: #333;
        stroke-width: 2px;
      }

      .cls-3 {
        fill: #1dff33;
      }

      .cls-4 {
        stroke-miterlimit: 10;
      }

      @media (prefers-color-scheme: dark) {
        .cls-1 {
          fill: #fff;
        }

        .cls-2, .cls-4 {
          stroke: #fff;
        }

        .cls-3 {
          fill: #00ff29;
        }
      }

      @media (prefers-color-scheme: light) {
        .cls-1 {
          fill: #333;
        }

        .cls-2, .cls-4 {
          stroke: #333;
        }

        .cls-3 {
          fill: #1dff33;
        }
      }
    </style>
  </defs>
  <g id="Layer_2" data-name="Layer 2">
    <g id="Layer_1-2" data-name="Layer 1">
      <path class="cls-1" d="M5.42,45.82V43.56a.38.38,0,0,1,.18-.32l13.48-7.55a.35.35,0,0,1,.53.31v2.21a.35.35,0,0,1-.18.31l-10.54,6a.35.35,0,0,0,0,.62l10.52,5.75a.37.37,0,0,1,.19.32v2.2a.35.35,0,0,1-.53.31L5.6,46.14A.38.38,0,0,1,5.42,45.82Z"/>
      <path class="cls-1" d="M53.1,50.84l10.35-5.66a.44.44,0,0,0,0-.77L53.09,38.54a.43.43,0,0,1-.22-.38v-2a.44.44,0,0,1,.65-.39l13.31,7.46a.44.44,0,0,1,.23.38v2.17a.44.44,0,0,1-.23.39L53.52,53.62a.44.44,0,0,1-.65-.39v-2A.43.43,0,0,1,53.1,50.84Z"/>
      <g id="Ellipse_2" data-name="Ellipse 2">
        <circle class="cls-2" cx="36.5" cy="36.5" r="35.5"/>
      </g>
      <path class="cls-3" d="M27.94,51.89a2.77,2.77,0,0,1-1.07-.83,3.41,3.41,0,0,1-.56-1.59,10,10,0,0,0-.9-2.73,18.53,18.53,0,0,0-1.73-2.07c-1.14-1.28-1.29-1.39-1.37-1.75a2.79,2.79,0,0,1,1.24-2.72c.75-.46,1.24-.15,2.19-.79a1.86,1.86,0,0,0,.93-1c.18-.73-.41-1.43-.85-2-.67-.8-1-.71-2-1.7a4.88,4.88,0,0,1-1.39-1.76,3.73,3.73,0,0,1-.23-1.75,4.21,4.21,0,0,1,.95-2.05,4.63,4.63,0,0,1,1.65-1.49c1-.5,1.52-.22,2-.79a2.1,2.1,0,0,0,.42-1.42,5.07,5.07,0,0,0-.57-2.13A17.13,17.13,0,0,1,26,20a6.92,6.92,0,0,1-.09-2.62,3.18,3.18,0,0,1,.72-1.52,2.57,2.57,0,0,1,1.3-.77,4.08,4.08,0,0,1,1.79.24c.84.21,1,.33,2.41.74a5.32,5.32,0,0,0,1.86.32,3.85,3.85,0,0,0,1.85-.55,4.63,4.63,0,0,0,1.52-2c.53-1,.44-1.18,1-2.19A5,5,0,0,1,39.51,10a4.38,4.38,0,0,1,2.74-.83,5.28,5.28,0,0,1,2.6.44,4,4,0,0,1,1.47,1.06,4.24,4.24,0,0,1,.91,2.15,7.59,7.59,0,0,1-.09,2.66,11.31,11.31,0,0,0-.28,1.9,4.21,4.21,0,0,0,.07,1.21,3.86,3.86,0,0,0,.84,1.78,5.37,5.37,0,0,0,2.16,1.33c.64.28.69.24,1.3.52.86.42,1.33.64,1.61,1.09a2.58,2.58,0,0,1,0,2.13c-.42,1.2-1.23,1.61-2.65,2.92a10.15,10.15,0,0,0-2.32,2.5c-1.14,2.79,2.74,5.64,1.44,8.17a4.69,4.69,0,0,1-1.62,1.62,7.73,7.73,0,0,1-2.43.7c-2,.49-3.23.78-3.76,1.7a3.71,3.71,0,0,0-.12,2.44c.23,1.45.85,2,.51,3a2.12,2.12,0,0,1-.7,1,3.63,3.63,0,0,1-2.28.62c-1.66.11-1.73-.19-2.63,0a12.09,12.09,0,0,0-2,1c-1.68.93-1.46.88-1.79,1A5.78,5.78,0,0,1,27.94,51.89Z"/>
      <path class="cls-4" d="M27.8,51.74a2.67,2.67,0,0,1-1.07-.82,3.49,3.49,0,0,1-.56-1.6,9.8,9.8,0,0,0-.9-2.73,17.36,17.36,0,0,0-1.73-2.07c-1.14-1.28-1.29-1.38-1.37-1.75a2.79,2.79,0,0,1,1.25-2.72c.74-.46,1.23-.14,2.19-.79a1.93,1.93,0,0,0,.93-1c.17-.73-.42-1.43-.86-2-.67-.8-.95-.71-2-1.7A4.71,4.71,0,0,1,22.3,32.8a3.48,3.48,0,0,1-.23-1.75A4.08,4.08,0,0,1,23,29a4.72,4.72,0,0,1,1.65-1.49c1-.5,1.53-.23,2-.79a2.17,2.17,0,0,0,.42-1.42,5.24,5.24,0,0,0-.58-2.14,17.93,17.93,0,0,1-.67-3.33,6.56,6.56,0,0,1-.08-2.61,3.23,3.23,0,0,1,.71-1.53,2.57,2.57,0,0,1,1.3-.77,4,4,0,0,1,1.79.25c.84.21,1,.32,2.42.73a5,5,0,0,0,1.85.32,3.73,3.73,0,0,0,1.85-.55,4.66,4.66,0,0,0,1.52-2c.53-1,.44-1.18,1-2.2a5,5,0,0,1,1.16-1.63,4.39,4.39,0,0,1,2.75-.82,5.21,5.21,0,0,1,2.59.43,4,4,0,0,1,1.47,1.06,4.24,4.24,0,0,1,.91,2.15A7.64,7.64,0,0,1,47,15.37a12.49,12.49,0,0,0-.28,1.89,4.57,4.57,0,0,0,.07,1.21,3.88,3.88,0,0,0,.84,1.78,5.37,5.37,0,0,0,2.16,1.33c.64.29.7.24,1.3.53.87.41,1.33.64,1.61,1.08a2.57,2.57,0,0,1,0,2.14c-.41,1.19-1.23,1.61-2.65,2.92a9.87,9.87,0,0,0-2.31,2.49c-1.15,2.79,2.73,5.64,1.43,8.17a4.69,4.69,0,0,1-1.62,1.62,7.57,7.57,0,0,1-2.43.7c-2,.49-3.23.78-3.75,1.71a3.68,3.68,0,0,0-.13,2.43c.23,1.45.85,2.05.52,3a2.24,2.24,0,0,1-.71,1,3.62,3.62,0,0,1-2.27.62c-1.66.11-1.74-.2-2.63,0a10.31,10.31,0,0,0-2,1l-1.78,1"/>
      <path class="cls-4" d="M27.82,55.3c.81-1.26,1.83-2.92,2.94-4.91,2-3.51,3.23-6.36,3.79-7.64.67-1.55,1.47-3.42,2.31-6a58.69,58.69,0,0,0,2-7.64"/>
    </g>
  </g>
</svg>