<svg aria-hidden="true" style="position:absolute;width:0;height:0" xmlns="http://www.w3.org/2000/svg" overflow="hidden">
  <defs>
    <symbol id="info" viewBox="0 0 7 7">
      <path d="M3.50044 1.62512C3.28226 1.62512 3.09135 1.81603 3.09135 2.03421C3.09135 2.25239 3.28226 2.4433 3.50044 2.4433C3.71863 2.4433 3.90953 2.25239 3.90953 2.03421C3.90953 1.81603 3.71863 1.62512 3.50044 1.62512ZM2.5459 2.71603V2.98876C2.5459 2.98876 3.09135 2.98876 3.09135 3.53421V4.07967C3.09135 4.62512 2.5459 4.62512 2.5459 4.62512V4.89785H4.45499V4.62512C4.45499 4.62512 3.90953 4.62512 3.90953 4.07967V2.98876C3.90953 2.85239 3.77317 2.71603 3.63681 2.71603H2.5459Z"/>
      <path d="M3.5 0C5.43302 0 7 1.56698 7 3.5C7 5.43302 5.43302 7 3.5 7C1.56698 7 0 5.43302 0 3.5C0 1.56698 1.56698 0 3.5 0ZM3.5 0.777764C1.99653 0.777764 0.777764 1.99653 0.777764 3.5C0.777764 5.00347 1.99653 6.22224 3.5 6.22224C5.00347 6.22224 6.22224 5.00347 6.22224 3.5C6.22224 1.99653 5.00347 0.777764 3.5 0.777764Z"/>
    </symbol>
  </defs>
</svg>