<svg aria-hidden="true" style="position:absolute;width:0;height:0" xmlns="http://www.w3.org/2000/svg" overflow="hidden">
  <defs>
    <symbol id="info" viewBox="0 0 7 7">
      <path d="M3.50044 1.62512C3.28226 1.62512 3.09135 1.81603 3.09135 2.03421C3.09135 2.25239 3.28226 2.4433 3.50044 2.4433C3.71863 2.4433 3.90953 2.25239 3.90953 2.03421C3.90953 1.81603 3.71863 1.62512 3.50044 1.62512ZM2.5459 2.71603V2.98876C2.5459 2.98876 3.09135 2.98876 3.09135 3.53421V4.07967C3.09135 4.62512 2.5459 4.62512 2.5459 4.62512V4.89785H4.45499V4.62512C4.45499 4.62512 3.90953 4.62512 3.90953 4.07967V2.98876C3.90953 2.85239 3.77317 2.71603 3.63681 2.71603H2.5459Z"/>
      <path d="M3.5 0C5.43302 0 7 1.56698 7 3.5C7 5.43302 5.43302 7 3.5 7C1.56698 7 0 5.43302 0 3.5C0 1.56698 1.56698 0 3.5 0ZM3.5 0.777764C1.99653 0.777764 0.777764 1.99653 0.777764 3.5C0.777764 5.00347 1.99653 6.22224 3.5 6.22224C5.00347 6.22224 6.22224 5.00347 6.22224 3.5C6.22224 1.99653 5.00347 0.777764 3.5 0.777764Z"/>
    </symbol>
    <symbol id="landStatus" viewBox="0 0 24 29">
      <path d="M24 15.3355C24 22.5573 19.2218 28.4264 12 28.4264C4.77818 28.4264 0 22.5573 0 15.3355C4.94029 15.3771 9.31505 18.5355 10.9091 23.2118V13.1537H5.45455C3.64713 13.1537 2.18182 11.6883 2.18182 9.88093V3.33547C2.18182 2.73307 2.67033 2.24456 3.27273 2.24456C3.61615 2.24456 3.93949 2.40624 4.14545 2.68093L7.48364 7.04456L11.0836 0.499109C11.4105 -0.00707284 12.0857 -0.152164 12.5919 0.174673C12.7217 0.258673 12.8324 0.369073 12.9164 0.499109L16.5164 7.04456L19.8545 2.68093C20.2161 2.19896 20.8999 2.10122 21.3818 2.46275C21.6565 2.66871 21.8182 2.99205 21.8182 3.33547V9.88093C21.8182 11.6883 20.3529 13.1537 18.5455 13.1537H13.0909V23.2118C14.6849 18.5355 19.0597 15.3771 24 15.3355Z"/>
    </symbol>
    <symbol id="maintenance" viewBox="0 0 28 28">
      <path d="M14 0L0 7.42065V8.61539H28V7.42065L14 0ZM2.15385 10.7692V21.5385L0 24.887V28H28V24.887L25.8462 21.5385V10.7692H2.15385ZM6.46154 12.9231H8.61539V24.7692H6.46154V12.9231ZM12.9231 12.9231H15.0769V24.7692H12.9231V12.9231ZM19.3846 12.9231H21.5385V24.7692H19.3846V12.9231Z"/>
    </symbol>
    <symbol id="landType" viewBox="0 0 26 28">
      <path d="M25.8612 10.1897C25.8856 8.70807 25.0413 7.34887 23.7024 6.71395C23.589 5.31201 22.4101 4.23692 21.0038 4.25289C20.7905 4.26995 20.5803 4.31355 20.3778 4.38242C20.2467 2.95759 18.9855 1.90884 17.5609 2.03988C17.0024 2.09126 16.4759 2.32247 16.0601 2.69853C16.0601 1.20808 14.852 0 13.3616 0C11.8711 0 10.663 1.20808 10.663 2.69853C10.663 2.69853 10.7494 2.74171 10.7494 2.80648C9.64537 1.8594 7.98264 1.98677 7.03556 3.09101C6.71584 3.46384 6.50665 3.91849 6.43174 4.40401C6.08999 4.29499 5.73249 4.24404 5.37391 4.25289C3.58554 4.238 2.12358 5.67556 2.10868 7.46393C2.10501 7.89527 2.18769 8.32271 2.35155 8.72167C0.640679 9.19985 -0.358642 10.9746 0.119538 12.6855C0.422206 13.7686 1.26847 14.6148 2.35155 14.9175C2.89838 16.6076 4.71201 17.5346 6.40216 16.9878C7.55778 16.6139 8.40426 15.6211 8.59056 14.421C8.98563 14.7644 9.47417 14.9825 9.9938 15.047V25.8412L6.43174 28H17.2259L13.7717 25.8412V21.5235C15.3652 19.5989 17.4234 18.1128 19.7517 17.2059C21.4814 17.6115 23.2123 16.5384 23.618 14.8089C23.6793 14.5475 23.7078 14.2794 23.7024 14.0108C23.7086 13.8957 23.7086 13.7804 23.7024 13.6654C25.0413 13.0305 25.8856 11.6713 25.8612 10.1897ZM13.7717 19.926V12.4996C14.3553 13.5374 15.4524 14.1807 16.643 14.1835H17.2475C17.2811 15.1314 17.7315 16.0163 18.478 16.6014C16.717 17.4088 15.1212 18.5361 13.7717 19.926Z"/>
    </symbol>
  </defs>
</svg>