<?xml version="1.0" encoding="UTF-8"?>
<svg id="Layer_1" xmlns="http://www.w3.org/2000/svg" version="1.1" viewBox="0 0 300 255">
  <!-- Generator: Adobe Illustrator 29.0.0, SVG Export Plug-In . SVG Version: 2.1.0 Build 186)  -->
  <defs>
    <style>
      .st0 {
        fill: #fff100;
      }
    </style>
  </defs>
  <polygon class="st0" points="296.56541 119.82738 188.06731 123.29171 189.59183 59.1228 13.54987 54.9602 11.97989 121.03352 106.78202 123.27519 106.78202 125.88718 1 129.26501 3.43429 205.14177 299 195.70414 296.56541 119.82738"/>
  <g>
    <g>
      <path d="M64.27106,12.11588c-.78393-2.19362-1.90625-4.11695-3.36574-5.76998-1.46069-1.65062-3.20317-2.93364-5.22864-3.84665s-4.30261-1.36951-6.82902-1.36951c-2.74558,0-5.22864.59826-7.45038,1.79358-2.22295,1.19532-3.99794,3.01053-5.32738,5.44442-.4582.83853-.82187,1.77256-1.14279,2.75044V2.23857h-7.18907v48.44233h9.08448v-17.80067c1.26742,1.87017,2.83378,3.31326,4.73732,4.27252,2.20007,1.10762,4.62894,1.66264,7.28782,1.66264,2.52641,0,4.81319-.46852,6.86153-1.40195,2.04714-.93463,3.80045-2.23807,5.26115-3.91272,1.45949-1.67225,2.56976-3.60639,3.33322-5.80241.76226-2.19362,1.14399-4.57345,1.14399-7.13949v-1.36831c0-2.52039-.39257-4.87859-1.1765-7.07462ZM55.12155,25.74254c-.82849,1.7179-1.97248,3.05377-3.43197,4.01003-1.45949.95626-3.16945,1.43439-5.12989,1.43439-1.69913,0-3.31155-.39163-4.83607-1.1737-1.52572-.78206-2.76725-1.89089-3.72579-3.32527-.95854-1.43439-1.43781-3.17271-1.43781-5.21616v-2.60808c0-2.12875.46843-3.95477,1.4053-5.47565s2.15672-2.67416,3.66077-3.45622c1.50284-.78206,3.14657-1.1737,4.93361-1.1737,1.96044,0,3.6704.46732,5.12989,1.40195,1.45949.93583,2.60348,2.22846,3.43197,3.87909.82729,1.65303,1.24153,3.60879,1.24153,5.86849,0,2.1732-.41424,4.11815-1.24153,5.83485Z"/>
      <path d="M91.45106,1.78206c-4.22674,0-7.42871,1.30464-9.60711,3.91152-1.64885,1.97288-2.67061,4.65725-3.07191,8.04829V2.23857h-7.18907v35.40312h9.08448v-18.45119c0-3.08621.83812-5.44442,2.51678-7.07462,1.67625-1.6302,4.04009-2.4447,7.09033-2.4447h2.48306V1.78206h-1.30656Z"/>
      <path d="M123.02276,7.65055c-1.24153-2.04346-3.07071-3.54272-5.48874-4.49897-2.41924-.95626-5.45743-1.43439-9.117-1.43439-1.1765,0-2.43008.01081-3.75831.03244-1.32944.02283-2.62516.07688-3.88836.16338-1.26441.0877-2.39636.17419-3.39825.26069v7.6933c1.21865-.0865,2.60228-.16338,4.14967-.22825,1.54619-.06487,3.08155-.11893,4.60727-.16338,1.52452-.04205,2.83228-.06487,3.92087-.06487,2.09169,0,3.63789.49975,4.64099,1.49926,1.00189,1.00071,1.50284,2.52159,1.50284,4.56384v.32676h-7.2541c-3.13694,0-5.87168.41326-8.2018,1.23857-2.33133.82651-4.14004,2.06508-5.42492,3.71571-1.28609,1.65303-1.92792,3.78178-1.92792,6.38986,0,2.39064.53346,4.4329,1.60159,6.12917,1.06692,1.69507,2.56976,2.99851,4.50852,3.91152s4.19302,1.36951,6.76519,1.36951c2.48306,0,4.58439-.44689,6.30639-1.33708,1.7208-.89018,3.07191-2.18401,4.05213-3.87909.44014-.76104.79146-1.61278,1.07776-2.5312v6.83435h7.18907V15.66941c0-3.30245-.62016-5.9754-1.8629-8.01886ZM112.30539,31.41521c-1.06813.4565-2.23379.68476-3.497.68476-2.09049,0-3.69208-.49975-4.80355-1.50046-1.11027-.9995-1.66661-2.30295-1.66661-3.91152,0-1.60738.55634-2.92283,1.66661-3.94396,1.11148-1.02113,2.71306-1.53289,4.80355-1.53289h7.38536v3.32527c-.08791,1.91371-.49011,3.42258-1.20902,4.53141-.71891,1.10883-1.61242,1.89089-2.67934,2.34739Z"/>
      <path d="M160.3927,2.23857v7.3263c-.14992-.3583-.286-.73071-.4576-1.06738-1.22106-2.38944-2.90814-4.21546-5.06486-5.47685-2.15672-1.26019-4.69517-1.89089-7.61416-1.89089-2.48306,0-4.74936.43608-6.7965,1.30464-2.04834.86976-3.8137,2.10833-5.29366,3.71571-1.48237,1.60858-2.62516,3.48866-3.43197,5.64023-.80561,2.15158-1.20902,4.46654-1.20902,6.94367v1.36951c0,2.47714.39257,4.80291,1.1765,6.97611.78514,2.1732,1.88457,4.06409,3.30071,5.67147,1.41493,1.60858,3.11406,2.86877,5.09738,3.78178,1.98211.91301,4.19302,1.36951,6.63394,1.36951,2.74437,0,5.1624-.59706,7.2541-1.79358,2.09169-1.19412,3.74627-2.93364,4.96732-5.21496.02439-.04565.04094-.09821.06503-.14446v3.24148c0,2.30415-.42508,4.20465-1.27404,5.7039-.85017,1.50046-2.1796,2.59727-3.98711,3.29284-1.80871.69437-4.17255,1.04275-7.09033,1.04275-1.56907,0-3.24652-.07568-5.03235-.22825-1.78703-.15257-3.46448-.31475-5.03235-.48894v7.56356c1.52452.21744,3.16945.39163,4.93361.52138,1.76536.13094,3.497.19582,5.19612.19582,4.79271,0,8.72443-.61989,11.79634-1.85845,3.07191-1.23857,5.34785-3.18472,6.82902-5.83485,1.48117-2.65133,2.22295-6.12917,2.22295-10.43233V2.23857h-7.18907ZM158.88865,20.23326c0,2.08671-.43592,3.86948-1.30656,5.34591-.87184,1.47883-2.02546,2.60808-3.46328,3.39135-1.43781.78206-3.02977,1.1725-4.77104,1.1725-1.91829,0-3.60658-.43368-5.06486-1.30344-1.46069-.86856-2.60468-2.10713-3.43197-3.71571-.82729-1.60858-1.24153-3.49947-1.24153-5.67267,0-2.21645.41424-4.12896,1.24153-5.73754.82729-1.60738,1.97127-2.85796,3.43197-3.74934,1.45829-.89018,3.14657-1.33588,5.06486-1.33588,1.69913,0,3.26699.358,4.70481,1.07519,1.43781.71719,2.60348,1.77196,3.497,3.16189.89231,1.39234,1.33907,3.08741,1.33907,5.08642v2.28132Z"/>
      <path d="M197.97095,2.1737v20.92833c0,2.30415-.66472,4.13016-1.99295,5.47685-1.32944,1.34789-3.0394,2.02063-5.12989,2.02063-2.09169,0-3.74867-.64031-4.96732-1.92333-1.21985-1.28062-1.83038-3.00933-1.83038-5.18253V2.1737h-9.08448v20.5367c0,5.30386,1.12231,9.30308,3.36574,11.99766,2.24463,2.69458,5.41408,4.04127,9.50957,4.04127h.39257c2.74437,0,5.03235-.60907,6.86153-1.82482,1.83038-1.21694,3.20317-3.02134,4.11716-5.41198.2571-.67154.46904-1.40165.65388-2.16599v8.29517h7.18907V2.1737h-9.08448Z"/>
      <path d="M248.44378,18.86374c0-3.12946-.65268-6.05229-1.96044-8.76849-1.30656-2.7162-3.25736-4.91103-5.8488-6.58568-2.59264-1.67225-5.80665-2.50957-9.63962-2.50957-2.92018,0-5.48995.51177-7.7117,1.53169-2.22295,1.02233-4.08465,2.39184-5.58869,4.10734-1.50284,1.7179-2.63599,3.67366-3.39825,5.86849-.76226,2.19483-1.14399,4.46654-1.14399,6.81273v1.23857c0,2.2609.38173,4.47735,1.14399,6.65055.76226,2.1744,1.89541,4.14098,3.39825,5.90092,1.50405,1.75994,3.39825,3.16189,5.68623,4.20465,2.28798,1.04395,4.95528,1.56533,8.00552,1.56533,2.91898,0,5.52246-.49975,7.81044-1.49926,2.28678-.9995,4.17135-2.41227,5.65251-4.23828,1.48117-1.82602,2.48426-3.95477,3.00689-6.38986h-8.36558c-.39257,1.30464-1.28609,2.40266-2.67934,3.29284-1.39446.89139-3.20197,1.33708-5.42492,1.33708-2.22175,0-4.05213-.48894-5.48995-1.46682-1.43661-.97908-2.50594-2.32577-3.20197-4.04247-.46151-1.13646-.75503-2.39365-.91098-3.74934h26.66038v-3.2604ZM225.89634,9.867c1.39446-.91301,3.09359-1.36951,5.09858-1.36951,2.00258,0,3.6692.43488,4.99984,1.30464,1.32823.86976,2.31929,2.10833,2.97317,3.71571.37089.91271.62438,1.94225.78484,3.06459h-17.82125c.17943-1.00371.44284-1.92933.79537-2.77146.71891-1.7167,1.77499-3.03095,3.16945-3.94396Z"/>
    </g>
    <g>
      <path d="M43.48778,112.68983c-3.09359,0-5.7621-.52138-8.00552-1.56533-2.24463-1.04275-4.11716-2.43269-5.62-4.17221-1.50405-1.73832-2.62636-3.69408-3.36574-5.86728-.74179-2.1732-1.11148-4.39085-1.11148-6.65055v-1.23857c0-2.39064.38053-4.68398,1.14399-6.8788.76105-2.19483,1.90504-4.15059,3.43077-5.86849,1.52452-1.7155,3.40909-3.08501,5.65372-4.10734,2.24342-1.01993,4.8457-1.53169,7.80924-1.53169,3.09359,0,5.85964.59826,8.30055,1.79238,2.4385,1.19652,4.3881,2.85916,5.8488,4.98791,1.45949,2.12995,2.27594,4.60829,2.45055,7.43261h-8.82317c-.21796-1.82482-.99106-3.3457-2.31929-4.56384-1.32944-1.21574-3.14898-1.82482-5.45743-1.82482-2.00499,0-3.67161.47813-4.99984,1.43439-1.32944.95626-2.31929,2.27171-2.97317,3.94396-.65388,1.67345-.98022,3.59677-.98022,5.76998,0,2.08671.3155,3.9776.94771,5.67267.631,1.69507,1.61122,3.02134,2.94066,3.97639,1.32823.95746,3.0394,1.43439,5.12989,1.43439,1.56907,0,2.91898-.28231,4.05213-.84694,1.13315-.56462,2.0363-1.34669,2.71186-2.34739.67556-.9995,1.10064-2.12875,1.27525-3.39015h8.82197c-.17461,2.86877-1.01273,5.37834-2.51557,7.52992s-3.48616,3.83704-5.94754,5.05278c-2.46138,1.21694-5.26115,1.82602-8.39809,1.82602Z"/>
      <g>
        <path d="M70.97484,71.80985c1.78583,0,3.09359-.46612,3.92208-1.40075.82608-.93463,1.24153-2.11914,1.24153-3.55353s-.41545-2.60808-1.24153-3.52109c-.82849-.91301-2.13625-1.36951-3.92208-1.36951-1.78703,0-3.10443.4565-3.95339,1.36951-.85017.91301-1.27525,2.08671-1.27525,3.52109s.42508,2.61889,1.27525,3.55353c.84896.93463,2.16636,1.40075,3.95339,1.40075Z"/>
        <polygon points="67.64162 76.04814 62.6755 76.04814 62.6755 82.82843 67.64162 82.82843 67.64162 111.45126 76.7261 111.45126 76.7261 82.82843 76.7261 76.04814 67.64162 76.04814"/>
      </g>
      <polygon points="107.50786 76.04814 100.27904 104.01865 98.73646 104.01865 90.32031 76.04814 80.97452 76.04814 92.08446 111.45126 94.76381 111.45126 98.35835 111.45126 100.97266 111.45126 104.37091 111.45126 106.65889 111.45126 116.266 76.04814 107.50786 76.04814"/>
      <g>
        <path d="M127.44097,71.80985c1.78583,0,3.09359-.46612,3.92208-1.40075.82608-.93463,1.24153-2.11914,1.24153-3.55353s-.41545-2.60808-1.24153-3.52109c-.82849-.91301-2.13625-1.36951-3.92208-1.36951-1.78703,0-3.10443.4565-3.95339,1.36951-.85017.91301-1.27525,2.08671-1.27525,3.52109s.42508,2.61889,1.27525,3.55353c.84896.93463,2.16636,1.40075,3.95339,1.40075Z"/>
        <polygon points="124.10775 76.04814 119.14163 76.04814 119.14163 82.82843 124.10775 82.82843 124.10775 111.45126 133.19223 111.45126 133.19223 82.82843 133.19223 76.04814 124.10775 76.04814"/>
      </g>
      <polygon points="141.57105 63.85586 137.12635 63.85586 137.12635 70.63616 141.57105 70.63616 141.57105 111.45126 150.65433 111.45126 150.65433 70.63616 150.65433 63.85586 141.57105 63.85586"/>
    </g>
    <g>
      <path d="M40.61215,180.21886c-4.87942,0-8.70275-1.03314-11.4688-3.09702-2.76725-2.06388-4.2159-4.92304-4.34716-8.57388h8.16929c.13126,1.21694.80681,2.32577,2.02667,3.32527,1.21865,1.00071,3.13694,1.49926,5.75126,1.49926,2.1784,0,3.91004-.39163,5.19492-1.1737,1.28488-.78206,1.92913-1.84644,1.92913-3.19433,0-1.1737-.49131-2.10833-1.47153-2.8039-.98022-.69437-2.64683-1.15087-4.99863-1.36951l-3.13694-.32556c-3.96543-.43368-7.01567-1.56413-9.15071-3.39015-2.13505-1.82602-3.20197-4.25991-3.20197-7.30287,0-2.43269.60933-4.47615,1.83038-6.12797,1.21865-1.65183,2.90814-2.90121,5.06486-3.74934,2.15672-.84694,4.62894-1.271,7.41787-1.271,4.35559,0,7.8851.95626,10.58732,2.86877,2.70102,1.91251,4.11716,4.71641,4.24721,8.41049h-8.16929c-.0867-1.21694-.69723-2.2597-1.82918-3.12946-1.13315-.86856-2.76725-1.30344-4.9023-1.30344-1.91709,0-3.39825.36881-4.4435,1.10762-1.04525.74002-1.56907,1.69507-1.56907,2.86877,0,1.13045.42508,2.00021,1.27525,2.60808.84896.60907,2.23138,1.02233,4.14967,1.23857l3.13694.32676c4.18219.43488,7.46122,1.58695,9.8359,3.45502,2.37468,1.86927,3.56202,4.39085,3.56202,7.56236,0,2.34739-.64304,4.38004-1.92792,6.09674-1.28609,1.7179-3.08275,3.05377-5.39241,4.01003-2.30966.95506-5.03235,1.43439-8.16929,1.43439Z"/>
      <path d="M78.94303,180.3486c-3.13694,0-5.90419-.49975-8.30055-1.49926-2.39636-.9995-4.42303-2.357-6.0776-4.0749-1.65698-1.7167-2.90814-3.66165-3.75831-5.83485-.84896-2.1732-1.27404-4.4341-1.27404-6.78149v-1.36831c0-2.43389.44676-4.74885,1.34027-6.94367.89231-2.19483,2.17719-4.15059,3.85585-5.86849,1.67625-1.7167,3.71375-3.06459,6.11011-4.04247,2.39515-.97788,5.09738-1.46682,8.10426-1.46682,3.00568,0,5.7067.48894,8.10306,1.46682,2.39636.97788,4.43386,2.32577,6.11131,4.04247,1.67625,1.7179,2.95149,3.67366,3.82333,5.86849.87064,2.19483,1.30656,4.50978,1.30656,6.94367v1.36831c0,2.34739-.42508,4.60829-1.27404,6.78149-.85017,2.1732-2.10253,4.11815-3.75831,5.83485-1.65577,1.7179-3.68244,3.0754-6.0776,4.0749-2.39636.9995-5.14193,1.49926-8.23432,1.49926ZM78.94303,172.59043c2.22175,0,4.09428-.48894,5.62-1.46682,1.52452-.97788,2.67934-2.30415,3.46448-3.9776.78393-1.67225,1.1753-3.57515,1.1753-5.7051,0-2.172-.40341-4.09653-1.20902-5.76998-.80681-1.67225-1.98211-2.99851-3.52831-3.97639-1.5474-.97788-3.38862-1.46682-5.52246-1.46682-2.13505,0-3.97627.48894-5.52246,1.46682-1.5474.97788-2.73474,2.30415-3.56202,3.97639-.82849,1.67345-1.24153,3.59798-1.24153,5.76998,0,2.12995.4022,4.03286,1.20902,5.7051.80561,1.67345,1.97007,2.99972,3.49579,3.9776,1.52452.97788,3.39825,1.46682,5.6212,1.46682Z"/>
      <path d="M120.40845,180.3486c-3.09359,0-5.7621-.52138-8.00552-1.56413-2.24463-1.04395-4.11716-2.43389-5.62-4.17341-1.50405-1.73712-2.62636-3.69408-3.36574-5.86728-.74179-2.1732-1.11148-4.38965-1.11148-6.65055v-1.23857c0-2.39064.38053-4.68278,1.14399-6.8788.76105-2.19362,1.90504-4.15059,3.43077-5.86728,1.52452-1.7167,3.40909-3.08621,5.65372-4.10734,2.24342-1.02113,4.8457-1.53289,7.80924-1.53289,3.09359,0,5.85964.59826,8.30055,1.79358,2.4385,1.19532,4.3881,2.85796,5.8488,4.98671,1.45949,2.13116,2.27594,4.60829,2.45055,7.43261h-8.82317c-.21796-1.82482-.99106-3.3457-2.31929-4.56384-1.32944-1.21574-3.14898-1.82482-5.45743-1.82482-2.00499,0-3.67161.47813-4.99984,1.43439-1.32944.95626-2.31929,2.27171-2.97317,3.94396-.65388,1.67345-.98022,3.59798-.98022,5.76998,0,2.08671.3155,3.9776.94771,5.67267.631,1.69507,1.61122,3.02134,2.94066,3.9776,1.32823.95626,3.0394,1.43439,5.12989,1.43439,1.56907,0,2.91898-.28231,4.05213-.84814,1.13315-.56462,2.0363-1.34669,2.71186-2.34739.67556-.9995,1.10064-2.12875,1.27525-3.39015h8.82197c-.17461,2.86877-1.01273,5.37834-2.51557,7.52992s-3.48616,3.83704-5.94754,5.05399c-2.46138,1.21574-5.26115,1.82482-8.39809,1.82482Z"/>
      <g>
        <path d="M147.89671,139.46983c1.78583,0,3.09238-.46732,3.92087-1.40195.82729-.93463,1.24153-2.11914,1.24153-3.55353s-.41424-2.60808-1.24153-3.52109c-.82849-.91301-2.13505-1.36831-3.92087-1.36831-1.78703,0-3.10443.4553-3.95459,1.36831-.84896.91301-1.27404,2.08671-1.27404,3.52109s.42508,2.61889,1.27404,3.55353c.85017.93463,2.16756,1.40195,3.95459,1.40195Z"/>
        <polygon points="144.56349 143.70691 139.59617 143.70691 139.59617 150.4884 144.56349 150.4884 144.56349 179.11003 153.64797 179.11003 153.64797 150.4884 153.64797 143.70691 144.56349 143.70691"/>
      </g>
      <path d="M195.06883,160.33328c0-3.12946-.65388-6.05229-1.96044-8.76969-1.30776-2.7162-3.25736-4.91103-5.85-6.58448-2.59264-1.67345-5.80545-2.51077-9.63962-2.51077-2.91898,0-5.48995.51177-7.7117,1.53289s-4.08465,2.39064-5.58749,4.10734c-1.50284,1.7167-2.6372,3.67366-3.39825,5.86728-.76346,2.19603-1.14399,4.46654-1.14399,6.81393v1.23857c0,2.2597.38053,4.47735,1.14399,6.64935.76105,2.1744,1.89541,4.14098,3.39825,5.90092,1.50284,1.75994,3.39825,3.16189,5.68623,4.20585,2.28678,1.04275,4.95528,1.56413,8.00552,1.56413,2.91778,0,5.52246-.49975,7.80924-1.49926,2.28798-.9995,4.17135-2.41227,5.65372-4.23828,1.47996-1.82482,2.48306-3.95477,3.00568-6.38866h-8.36437c-.39257,1.30344-1.28609,2.40145-2.68055,3.29164-1.39446.89139-3.20197,1.33708-5.42372,1.33708s-4.05213-.48894-5.48995-1.46682c-1.43781-.97788-2.50594-2.32457-3.20197-4.04247-.46241-1.13646-.75624-2.39334-.91218-3.74934h26.66158v-3.2592ZM172.5214,151.33534c1.39446-.91301,3.09359-1.36951,5.09738-1.36951s3.6704.43608,4.99984,1.30464c1.32823.86976,2.32049,2.10833,2.97317,3.71571.37089.91241.62438,1.94225.78484,3.06459h-17.82065c.18003-1.00371.44345-1.92873.79598-2.77026.71891-1.7167,1.77499-3.03215,3.16945-3.94516Z"/>
      <path d="M221.61541,150.35746v-6.65055h-10.93474l.01987-9.97462h-8.49563l-.02017,9.97462h-5.66606v6.65055h5.65251l-.03131,15.45268c0,3.43339.52262,6.16041,1.56787,8.18224,1.04525,2.02063,2.62395,3.45502,4.73853,4.30316,2.11217.84694,4.80355,1.271,8.07055,1.271h5.09858v-7.75817h-5.55497c-1.74368,0-3.08396-.46732-4.01962-1.40195-.93807-.93463-1.4053-2.27171-1.4053-4.01003l.03191-16.03892h10.94798Z"/>
      <path d="M250.58726,143.70691l-7.16077,27.44913h-1.37399l-8.65398-27.44913h-9.14951l11.50252,34.62106h5.80394l-.51028,1.95576c-.30466,1.26019-.74179,2.24889-1.30656,2.96608-.56718.71719-1.27525,1.23857-2.12421,1.56533-.85017.32556-1.90625.48894-3.16945.48894h-6.66645v7.75817h5.81628c2.91898,0,5.36953-.34839,7.35284-1.04275,1.98211-.69557,3.60417-1.83683,4.86858-3.42258,1.26321-1.58816,2.24342-3.7061,2.94066-6.35743l10.5223-38.53258h-8.69191Z"/>
    </g>
    <g>
      <path d="M43.48778,254c-3.09359,0-5.7621-.52138-8.00552-1.56413-2.24463-1.04395-4.11716-2.43389-5.62-4.17341-1.50405-1.73712-2.62636-3.69408-3.36574-5.86728-.74179-2.1732-1.11148-4.38965-1.11148-6.65055v-1.23857c0-2.39064.38053-4.68278,1.14399-6.8788.76105-2.19362,1.90504-4.15059,3.43077-5.86728,1.52452-1.7167,3.40909-3.08621,5.65372-4.10734,2.24342-1.02113,4.8457-1.53289,7.80924-1.53289,3.09359,0,5.85964.59826,8.30055,1.79358,2.4385,1.19532,4.3881,2.85796,5.8488,4.98671,1.45949,2.13116,2.27594,4.60829,2.45055,7.43261h-8.82317c-.21796-1.82482-.99106-3.3457-2.31929-4.56384-1.32944-1.21574-3.14898-1.82482-5.45743-1.82482-2.00499,0-3.67161.47813-4.99984,1.43439-1.32944.95626-2.31929,2.27171-2.97317,3.94396-.65388,1.67345-.98022,3.59798-.98022,5.76998,0,2.08671.3155,3.9776.94771,5.67267.631,1.69507,1.61122,3.02134,2.94066,3.9776,1.32823.95626,3.0394,1.43439,5.12989,1.43439,1.56907,0,2.91898-.28231,4.05213-.84814,1.13315-.56462,2.0363-1.34669,2.71186-2.34739.67556-.9995,1.10064-2.12875,1.27525-3.39015h8.82197c-.17461,2.86877-1.01273,5.37834-2.51557,7.52992-1.50284,2.15158-3.48616,3.83704-5.94754,5.05399-2.46138,1.21574-5.26115,1.82482-8.39809,1.82482Z"/>
      <path d="M99.05076,233.98468c0-3.12946-.65268-6.05229-1.96044-8.76969-1.30656-2.7162-3.25736-4.91103-5.8488-6.58448-2.59264-1.67345-5.80665-2.51077-9.63962-2.51077-2.92018,0-5.48995.51177-7.7117,1.53289-2.22295,1.02113-4.08465,2.39064-5.58869,4.10734-1.50284,1.7167-2.63599,3.67366-3.39825,5.86728-.76226,2.19603-1.14399,4.46654-1.14399,6.81393v1.23857c0,2.2597.38173,4.47735,1.14399,6.64935.76226,2.1744,1.89541,4.14098,3.39825,5.90092,1.50405,1.75994,3.39825,3.16189,5.68623,4.20585,2.28798,1.04275,4.95528,1.56413,8.00552,1.56413,2.91898,0,5.52246-.49975,7.81044-1.49926,2.28678-.9995,4.17135-2.41227,5.65251-4.23828,1.48117-1.82482,2.48426-3.95477,3.00689-6.38866h-8.36558c-.39257,1.30344-1.28609,2.40145-2.67934,3.29164-1.39446.89139-3.20197,1.33708-5.42492,1.33708-2.22175,0-4.05213-.48894-5.48995-1.46682-1.43661-.97788-2.50594-2.32457-3.20197-4.04247-.46151-1.13646-.75503-2.39334-.91098-3.74934h26.66038v-3.2592ZM76.50332,224.98674c1.39446-.91301,3.09359-1.36951,5.09858-1.36951,2.00258,0,3.6692.43608,4.99984,1.30464,1.32823.86976,2.31929,2.10833,2.97317,3.71571.37089.91241.62438,1.94225.78484,3.06459h-17.82125c.17943-1.00371.44284-1.92873.79537-2.77026.71891-1.7167,1.77499-3.03215,3.16945-3.94516Z"/>
      <path d="M134.34826,220.32559c-2.1784-2.7162-5.38157-4.0749-9.60711-4.0749h-.39136c-2.83348,0-5.19612.60907-7.09153,1.82482-1.89541,1.21815-3.32239,3.03215-4.28093,5.44442-.32212.8109-.57019,1.7149-.78393,2.66094v-8.82255h-7.18907v35.40312h9.08448v-20.79858c0-2.30295.68639-4.13977,2.05918-5.50929,1.37158-1.36831,3.16945-2.05307,5.3912-2.05307,2.1784,0,3.88836.67394,5.12989,2.02063,1.24273,1.34789,1.8629,3.10783,1.8629,5.28104v21.05927h9.08448v-20.27721c0-5.38916-1.0898-9.44244-3.2682-12.15864Z"/>
      <path d="M165.79714,224.00886v-6.65055h-10.93383l.02017-9.97462h-8.49683l-.02017,9.97462h-5.66486v6.65055h5.65131l-.03131,15.45268c0,3.43339.52262,6.16041,1.56907,8.18224,1.04525,2.02063,2.62395,3.45502,4.73732,4.30316,2.11337.84694,4.80355,1.271,8.07175,1.271h5.09738v-7.75817h-5.55497c-1.74368,0-3.08275-.46732-4.01962-1.40195-.93687-.93463-1.4053-2.27171-1.4053-4.01003l.03251-16.03892h10.94738Z"/>
      <path d="M191.31173,216.9018c-4.22674,0-7.42871,1.30464-9.60711,3.91272-1.64885,1.97288-2.67061,4.65725-3.07191,8.04769v-11.50391h-7.18907v35.40312h9.08448v-18.45119c0-3.08621.83812-5.44442,2.51678-7.07342,1.67625-1.6302,4.04009-2.4459,7.09033-2.4459h2.48306v-7.88912h-1.30656Z"/>
      <path d="M229.94125,233.98468c0-3.12946-.65268-6.05229-1.96044-8.76969-1.30656-2.7162-3.25736-4.91103-5.8488-6.58448-2.59264-1.67345-5.80665-2.51077-9.63962-2.51077-2.92018,0-5.48995.51177-7.7117,1.53289-2.22295,1.02113-4.08465,2.39064-5.58869,4.10734-1.50284,1.7167-2.63599,3.67366-3.39825,5.86728-.76226,2.19603-1.14399,4.46654-1.14399,6.81393v1.23857c0,2.2597.38173,4.47735,1.14399,6.64935.76226,2.1744,1.89541,4.14098,3.39825,5.90092,1.50405,1.75994,3.39825,3.16189,5.68623,4.20585,2.28798,1.04275,4.95528,1.56413,8.00552,1.56413,2.91898,0,5.52246-.49975,7.81044-1.49926,2.28678-.9995,4.17135-2.41227,5.65251-4.23828,1.48117-1.82482,2.48426-3.95477,3.00689-6.38866h-8.36558c-.39257,1.30344-1.28609,2.40145-2.67934,3.29164-1.39446.89139-3.20197,1.33708-5.42492,1.33708-2.22175,0-4.05213-.48894-5.48995-1.46682-1.43661-.97788-2.50594-2.32457-3.20197-4.04247-.46151-1.13646-.75503-2.39334-.91098-3.74934h26.66038v-3.2592ZM207.39382,224.98674c1.39446-.91301,3.09359-1.36951,5.09858-1.36951,2.00258,0,3.6692.43608,4.99984,1.30464,1.32823.86976,2.31929,2.10833,2.97317,3.71571.37089.91241.62438,1.94225.78484,3.06459h-17.82125c.17943-1.00371.44284-1.92873.79537-2.77026.71891-1.7167,1.77499-3.03215,3.16945-3.94516Z"/>
    </g>
  </g>
</svg>