<svg width="44" height="26" viewBox="0 0 44 26" fill="none" xmlns="http://www.w3.org/2000/svg">
<path d="M15.447 6.46622C14.7662 6.46622 14.2143 5.91431 14.2143 5.23351C14.2143 4.5527 14.7662 4.00079 15.447 4.00079C16.1278 4.00079 16.6797 4.5527 16.6797 5.23351C16.6797 5.91431 16.1278 6.46622 15.447 6.46622Z" fill="black"/>
<path d="M0.792423 10.2681H0.849007C1.81779 10.2681 2.60324 9.4826 2.60324 8.51382V7.57106C2.60324 5.7488 4.03151 4.20536 5.85305 4.15769C7.01466 4.12735 8.04771 4.69439 8.66882 5.57252L10.7741 3.91541C11.3002 2.39741 12.4455 1.10718 14.0064 0.454161C14.7268 0.152921 15.4829 0 16.254 0C17.3332 0 18.3907 0.30196 19.3123 0.873238C19.9307 1.25665 21.7147 3.21306 22.2504 3.80756C22.9946 4.63385 29.8259 12.0345 40.4083 17.4535L44 19.2001L28.8638 19.7139C28.0617 20.4683 27.1323 21.0588 26.0968 21.4713C25.4582 21.7256 24.8007 21.9024 24.1314 22.0022L22.2845 23.8491H22.485C23.3601 23.8491 24.0694 24.5585 24.0694 25.4335H17.7687C17.7687 24.5584 18.4781 23.8491 19.3531 23.8491H20.0435L21.849 22.0436C18.6367 21.6866 15.8775 19.6101 14.6586 16.5504C14.0325 14.9788 13.8719 13.2949 14.187 11.6502C13.2509 10.865 12.3391 10.0954 12.0986 9.84891C11.8528 9.59706 11.6328 9.32199 11.4374 9.02995L9.28043 8.16699V12.0221C9.28043 12.9909 10.0659 13.7763 11.0347 13.7763H11.0581C11.4919 13.7763 11.8702 14.1106 11.8832 14.5442C11.8966 14.9929 11.537 15.3608 11.0913 15.3608H11.0347C9.19085 15.3608 7.696 13.866 7.696 12.0222V7.53317L6.68933 7.13048L7.42036 6.55511C7.08562 6.03042 6.48098 5.69373 5.80265 5.7465C4.88196 5.81804 4.18753 6.61866 4.18753 7.54215V8.51389C4.18753 10.3577 2.69268 11.8526 0.848862 11.8526H0.825424C0.391613 11.8526 0.0133705 11.5182 0.000358582 11.0846C-0.0129433 10.636 0.346745 10.2681 0.792423 10.2681ZM15.3024 10.5176L15.9531 11.0642L15.8326 11.5446C15.463 13.0183 15.5661 14.5465 16.1308 15.9639C17.232 18.7282 19.8657 20.5142 22.8406 20.5142C23.7548 20.5142 24.653 20.3411 25.5105 19.9993C26.4425 19.6281 27.2691 19.0817 27.9671 18.3754L28.1887 18.1513L37.7458 17.827C28.0177 12.413 21.7906 5.6644 21.0699 4.86413C19.6321 3.26849 18.6875 2.35672 18.4777 2.2199C17.8071 1.80421 17.0382 1.58457 16.2543 1.58457C15.6943 1.58457 15.1438 1.69608 14.6182 1.91608C12.7064 2.71569 11.6527 4.83113 12.1669 6.83672C12.3521 7.55869 12.7207 8.21761 13.2329 8.74251C13.447 8.96201 14.7472 10.0521 15.3024 10.5176ZM10.5733 6.97771C10.5175 6.71047 10.4818 6.44238 10.4648 6.17521L9.82532 6.67848L10.5733 6.97771Z" fill="black"/>
</svg>
