<svg width="17" height="17" viewBox="0 0 17 17" fill="none" xmlns="http://www.w3.org/2000/svg">
<path d="M1.88889 0H15.1111C15.6121 0 16.0925 0.199007 16.4468 0.553243C16.801 0.907478 17 1.38792 17 1.88889V15.1111C17 15.6121 16.801 16.0925 16.4468 16.4468C16.0925 16.801 15.6121 17 15.1111 17H1.88889C1.38792 17 0.907478 16.801 0.553243 16.4468C0.199007 16.0925 0 15.6121 0 15.1111V1.88889C0 1.38792 0.199007 0.907478 0.553243 0.553243C0.907478 0.199007 1.38792 0 1.88889 0ZM14.1667 1.88889H11.8056C10.9289 1.88889 10.0881 2.23715 9.46817 2.85706C8.84826 3.47698 8.5 4.31776 8.5 5.19444V7.55556H6.61111V10.3889H8.5V17H11.3333V10.3889H14.1667V7.55556H11.3333V5.66667C11.3333 5.41618 11.4328 5.17596 11.61 4.99884C11.7871 4.82173 12.0273 4.72222 12.2778 4.72222H14.1667V1.88889Z" fill="#2F2F2F"/>
</svg>
