<svg width="17" height="17" viewBox="0 0 17 17" fill="none" xmlns="http://www.w3.org/2000/svg">
<path d="M15.1111 0C15.6121 0 16.0925 0.199007 16.4468 0.553243C16.801 0.907478 17 1.38792 17 1.88889V15.1111C17 15.6121 16.801 16.0925 16.4468 16.4468C16.0925 16.801 15.6121 17 15.1111 17H1.88889C1.38792 17 0.907478 16.801 0.553243 16.4468C0.199007 16.0925 0 15.6121 0 15.1111V1.88889C0 1.38792 0.199007 0.907478 0.553243 0.553243C0.907478 0.199007 1.38792 0 1.88889 0H15.1111ZM14.6389 14.6389V9.63333C14.6389 8.81676 14.3145 8.03363 13.7371 7.45623C13.1597 6.87883 12.3766 6.55444 11.56 6.55444C11.1233 6.56948 10.6966 6.68878 10.3154 6.90237C9.93424 7.11595 9.6097 7.41764 9.36889 7.78222V6.73389H6.73389V14.6389H9.36889V9.98278C9.35343 9.80038 9.37602 9.61677 9.43521 9.44356C9.4944 9.27034 9.58891 9.11131 9.71276 8.97652C9.83661 8.84173 9.9871 8.73413 10.1547 8.66052C10.3223 8.58691 10.5033 8.54891 10.6864 8.54891C10.8694 8.54891 11.0505 8.58691 11.2181 8.66052C11.3857 8.73413 11.5362 8.84173 11.66 8.97652C11.7839 9.11131 11.8784 9.27034 11.9376 9.44356C11.9968 9.61677 12.0193 9.80038 12.0039 9.98278V14.6389H14.6389ZM3.66444 5.25111C4.08525 5.25111 4.48883 5.08395 4.78639 4.78639C5.08395 4.48883 5.25111 4.08525 5.25111 3.66444C5.26802 3.44515 5.23942 3.22473 5.16711 3.01702C5.0948 2.8093 4.98034 2.61877 4.83092 2.45738C4.68149 2.29599 4.50032 2.16723 4.29878 2.07916C4.09723 1.9911 3.87966 1.94565 3.65972 1.94565C3.43978 1.94565 3.22221 1.9911 3.02067 2.07916C2.81912 2.16723 2.63795 2.29599 2.48853 2.45738C2.3391 2.61877 2.22464 2.8093 2.15233 3.01702C2.08003 3.22473 2.05143 3.44515 2.06833 3.66444C2.07083 4.08612 2.24009 4.48968 2.53915 4.78696C2.83821 5.08425 3.24276 5.25112 3.66444 5.25111ZM4.97722 14.6389V6.73389H2.36111V14.6389H4.97722Z" fill="#2F2F2F"/>
</svg>
