<svg width="17" height="17" viewBox="0 0 17 17" fill="none" xmlns="http://www.w3.org/2000/svg">
<path d="M5.21484 6.2744H6.15907C6.26762 5.81889 6.40843 5.40007 6.57561 5.02979C6.25619 5.20736 5.95952 5.43035 5.694 5.69587C5.51454 5.87534 5.3546 6.06911 5.21484 6.2744Z" fill="#2F2F2F"/>
<path d="M5.21484 10.7258C5.35463 10.9311 5.51454 11.1249 5.694 11.3044C5.95952 11.5699 6.25619 11.7929 6.57561 11.9704C6.4084 11.6002 6.26762 11.1813 6.15907 10.7258H5.21484Z" fill="#2F2F2F"/>
<path d="M11.7826 6.2744C11.6429 6.06911 11.4829 5.87534 11.3035 5.69587C11.038 5.43035 10.7413 5.20736 10.4219 5.02979C10.5891 5.40007 10.7299 5.81889 10.8384 6.2744H11.7826Z" fill="#2F2F2F"/>
<path d="M9.24786 5.3802C8.92825 4.74097 8.6076 4.53418 8.50238 4.53418C8.39716 4.53418 8.07652 4.74097 7.75691 5.3802C7.62453 5.64499 7.5109 5.94661 7.41797 6.27422H9.5868C9.49383 5.94661 9.38024 5.64496 9.24786 5.3802Z" fill="#2F2F2F"/>
<path d="M7.75691 11.6199C8.07652 12.2591 8.39716 12.4659 8.50238 12.4659C8.6076 12.4659 8.92825 12.2591 9.24786 11.6199C9.38024 11.3551 9.49386 11.0534 9.5868 10.7258H7.41797C7.51094 11.0534 7.62453 11.3551 7.75691 11.6199Z" fill="#2F2F2F"/>
<path d="M5.91103 8.50019C5.91103 8.15395 5.92816 7.81574 5.96057 7.48853H4.66495C4.57952 7.81475 4.53516 8.15402 4.53516 8.50019C4.53516 8.84637 4.57948 9.18564 4.66495 9.51186H5.96057C5.92816 9.18464 5.91103 8.84643 5.91103 8.50019Z" fill="#2F2F2F"/>
<path d="M11.0925 8.50019C11.0925 8.84643 11.0754 9.18464 11.043 9.51186H12.3386C12.424 9.18564 12.4684 8.84637 12.4684 8.50019C12.4684 8.15402 12.4241 7.81475 12.3386 7.48853H11.043C11.0754 7.81574 11.0925 8.15395 11.0925 8.50019Z" fill="#2F2F2F"/>
<path d="M8.5 0C3.80558 0 0 3.80558 0 8.5C0 13.1944 3.80558 17 8.5 17C13.1944 17 17 13.1944 17 8.5C17 3.80558 13.1944 0 8.5 0ZM8.5 13.6797C5.63935 13.6797 3.32031 11.3606 3.32031 8.5C3.32031 5.63935 5.63935 3.32031 8.5 3.32031C11.3606 3.32031 13.6797 5.63935 13.6797 8.5C13.6797 11.3606 11.3606 13.6797 8.5 13.6797Z" fill="#2F2F2F"/>
<path d="M7.18191 7.48853C7.14456 7.81727 7.125 8.1568 7.125 8.50019C7.125 8.84358 7.14456 9.18311 7.18191 9.51186H9.8198C9.85715 9.18311 9.87671 8.84358 9.87671 8.50019C9.87671 8.1568 9.85715 7.81727 9.8198 7.48853H7.18191Z" fill="#2F2F2F"/>
<path d="M10.4219 11.9704C10.7413 11.7929 11.038 11.5699 11.3035 11.3044C11.4829 11.1249 11.6429 10.9311 11.7826 10.7258H10.8384C10.7299 11.1813 10.5891 11.6002 10.4219 11.9704Z" fill="#2F2F2F"/>
</svg>
