<svg width="22" height="17" viewBox="0 0 22 17" fill="none" xmlns="http://www.w3.org/2000/svg">
<path d="M21.3859 2.92188C21.1825 1.75354 20.2135 0.90271 19.089 0.637085C17.4062 0.265625 14.2918 0 10.9222 0C7.55465 0 4.39043 0.265625 2.70564 0.637085C1.58311 0.90271 0.612108 1.69959 0.408737 2.92188C0.203372 4.25 0 6.10938 0 8.5C0 10.8906 0.203372 12.75 0.458583 14.0781C0.663948 15.2465 1.63295 16.0973 2.75548 16.3629C4.54196 16.7344 7.6045 17 10.9741 17C14.3437 17 17.4062 16.7344 19.1927 16.3629C20.3152 16.0973 21.2842 15.3004 21.4896 14.0781C21.6929 12.75 21.9482 10.8367 22 8.5C21.8963 6.10938 21.6411 4.25 21.3859 2.92188ZM8.16676 12.2188V4.78125L14.3935 8.5L8.16676 12.2188Z" fill="#2F2F2F"/>
</svg>
